<svg width="66" height="66" viewBox="0 0 66 66" fill="none" xmlns="http://www.w3.org/2000/svg">
<path d="M49.9835 15.5958C48.9183 14.5306 47.1976 14.5306 46.1324 15.5958L32.7762 28.9247L19.4201 15.5685C18.3549 14.5033 16.6341 14.5033 15.5689 15.5685C14.5037 16.6337 14.5037 18.3545 15.5689 19.4197L28.9251 32.7758L15.5689 46.132C14.5037 47.1972 14.5037 48.9179 15.5689 49.9831C16.6341 51.0483 18.3549 51.0483 19.4201 49.9831L32.7762 36.627L46.1324 49.9831C47.1976 51.0483 48.9183 51.0483 49.9835 49.9831C51.0488 48.9179 51.0488 47.1972 49.9835 46.132L36.6274 32.7758L49.9835 19.4197C51.0214 18.3818 51.0214 16.6337 49.9835 15.5958Z" fill="#991B1B"/>
</svg>
