<svg width="79" height="79" viewBox="0 0 79 79" fill="none" xmlns="http://www.w3.org/2000/svg">
<path d="M50.4692 45.5846H47.8969L46.9852 44.7055C50.8925 40.147 52.9112 33.928 51.8042 27.3182C50.2738 18.2664 42.7198 11.038 33.6029 9.93094C19.8298 8.23779 8.2383 19.8293 9.93144 33.6024C11.0385 42.7193 18.2669 50.2733 27.3187 51.8037C33.9285 52.9107 40.1475 50.892 44.706 46.9847L45.5851 47.8964V50.4687L59.4233 64.3069C60.7583 65.6419 62.9398 65.6419 64.2748 64.3069C65.6098 62.9719 65.6098 60.7904 64.2748 59.4554L50.4692 45.5846ZM30.9329 45.5846C22.8254 45.5846 16.2807 39.04 16.2807 30.9324C16.2807 22.8249 22.8254 16.2802 30.9329 16.2802C39.0405 16.2802 45.5851 22.8249 45.5851 30.9324C45.5851 39.04 39.0405 45.5846 30.9329 45.5846Z" fill="#974067"/>
</svg>
