<svg width="43" height="43" viewBox="0 0 43 43" fill="none" xmlns="http://www.w3.org/2000/svg">
<path d="M31.7902 22.9597H22.9596V31.7903C22.9596 32.7617 22.1648 33.5564 21.1935 33.5564C20.2221 33.5564 19.4273 32.7617 19.4273 31.7903V22.9597H10.5967C9.62532 22.9597 8.83057 22.1649 8.83057 21.1935C8.83057 20.2222 9.62532 19.4274 10.5967 19.4274H19.4273V10.5968C19.4273 9.6254 20.2221 8.83064 21.1935 8.83064C22.1648 8.83064 22.9596 9.6254 22.9596 10.5968V19.4274H31.7902C32.7616 19.4274 33.5564 20.2222 33.5564 21.1935C33.5564 22.1649 32.7616 22.9597 31.7902 22.9597Z" fill="white"/>
</svg>
